<svg width="752" height="760" viewBox="0 0 752 760" fill="none" xmlns="http://www.w3.org/2000/svg">
<path d="M79.0142 423.953L316.057 343.576L519.86 446.295L306.521 525.036L79.0142 423.953Z" fill="#A02816"/>
<path d="M79.8317 423.953L601.326 264.017L693.691 0L0 235.408" fill="#ED5338"/>
<path d="M0 235.408L67.0259 213.066L326.411 348.753L79.2868 423.953L0 235.408Z" fill="#DF4829"/>
<path d="M286.359 528.033L284.997 672.166L484.167 598.056L519.587 446.022" fill="#ED5338"/>
<path d="M287.177 528.034L135.142 584.161L181.733 707.314L286.359 671.622L287.177 528.034Z" fill="#DF4829"/>
<path d="M181.733 706.769L286.359 759.9V671.349L181.733 706.769Z" fill="#A02816"/>
<path d="M751.453 24.7943C751.453 28.8812 750.363 32.9682 748.183 36.5102C746.004 40.0522 743.279 43.0493 739.465 45.229C735.65 47.4087 731.836 48.4986 727.749 48.4986C723.662 48.4986 719.575 47.4087 715.76 45.229C711.946 43.0493 709.221 40.0522 707.042 36.5102C705.134 32.9682 704.044 28.8812 704.044 24.7943C704.044 20.7073 705.134 16.6204 707.314 13.0783C709.494 9.53632 712.218 6.53923 716.033 4.35953C719.575 2.17982 723.662 1.08997 727.749 1.08997C731.836 1.08997 735.923 2.17982 739.465 4.35953C743.279 6.53923 746.004 9.26386 748.183 13.0783C750.363 16.6204 751.181 20.7073 751.181 24.7943H751.453ZM747.911 24.7943C747.911 21.2522 747.094 17.9827 745.186 14.9856C743.279 11.9885 740.827 9.53632 737.83 7.62908C734.833 5.72184 731.291 4.90445 727.749 4.90445C724.207 4.90445 721.21 5.72184 717.94 7.35662C714.943 8.9914 712.491 11.4436 710.584 14.4407C708.676 17.4378 707.859 20.9798 707.859 24.5218C707.859 28.0638 708.676 31.3334 710.584 34.6029C712.491 37.6 714.671 40.0522 717.94 41.9594C720.937 43.8667 724.207 44.6841 727.749 44.6841C731.291 44.6841 734.56 43.8667 737.83 41.9594C740.827 40.0522 743.279 37.8725 745.186 34.6029C747.094 31.6058 747.911 28.0638 747.911 24.5218V24.7943ZM733.198 38.145L727.476 27.7914H723.662V38.145H717.94V11.4436H728.839C732.108 11.4436 734.56 12.261 736.195 13.6233C737.83 14.9856 738.647 16.8928 738.647 19.345C738.647 21.7972 738.102 23.1595 737.012 24.2493C735.923 25.6116 734.56 26.429 732.926 26.974L740.01 37.8725H733.47L733.198 38.145ZM732.653 19.6175C732.653 18.2551 732.381 17.4378 731.563 16.8928C730.746 16.3479 729.656 15.803 728.021 15.803H723.662V23.9769H728.294C729.656 23.9769 730.746 23.7044 731.563 22.887C732.381 22.0696 732.653 20.9798 732.653 19.8899V19.6175Z" fill="#2D2E30"/>
</svg>
